<svg width="30" height="30" viewBox="0 0 30 30" xmlns="http://www.w3.org/2000/svg">
    <g stroke="#FFF" fill="none" fill-rule="evenodd">
        <path d="M22.5 3.5a2.99 2.99 0 0 1 2.121.879A2.99 2.99 0 0 1 25.5 6.5a2.99 2.99 0 0 1-.879 2.121A2.99 2.99 0 0 1 22.5 9.5a2.99 2.99 0 0 1-2.121-.879A2.99 2.99 0 0 1 19.5 6.5c0-.828.336-1.578.879-2.121A2.99 2.99 0 0 1 22.5 3.5zM22.5 20.5a2.99 2.99 0 0 1 2.121.879A2.99 2.99 0 0 1 25.5 23.5a2.99 2.99 0 0 1-.879 2.121 2.99 2.99 0 0 1-2.121.879 2.99 2.99 0 0 1-2.121-.879A2.99 2.99 0 0 1 19.5 23.5c0-.828.336-1.578.879-2.121A2.99 2.99 0 0 1 22.5 20.5zM6.5 12a2.99 2.99 0 0 1 2.121.879A2.99 2.99 0 0 1 9.5 15a2.99 2.99 0 0 1-.879 2.121A2.99 2.99 0 0 1 6.5 18a2.99 2.99 0 0 1-2.121-.879A2.99 2.99 0 0 1 3.5 15c0-.828.336-1.578.879-2.121A2.99 2.99 0 0 1 6.5 12zM9.198 17.474l11.364 5.221M8.585 13.848l10.392-6"/>
    </g>
</svg>
