<svg xmlns="http://www.w3.org/2000/svg" viewBox="0 0 10 10" fill="none" class="ico_logo" data-v-6776bf5c="">
    <path d="M2.672 9.083 4.941 7.89a.104.104 0 0 1 .05-.012V.915a.309.309 0 0 0-.282.174L3.575 3.387a.104.104 0 0 1-.079.057L.96 3.813a.312.312 0 0 0-.173.533l1.835 1.789a.104.104 0 0 1 .03.092L2.22 8.754a.312.312 0 0 0 .453.329Z" fill="#FBC02D"></path>
    <path d="M4.99 1.65 4.023 3.61 4.99 1.65Zm0 0 .966 1.959a.604.604 0 0 0 .455.33l2.16.314-1.563 1.524a.604.604 0 0 0-.174.535l.37 2.152L5.27 7.448a.604.604 0 0 0-.563 0L2.776 8.464l.369-2.152a.604.604 0 0 0-.174-.535l-.349.358.35-.358-1.564-1.524 2.16-.314a.604.604 0 0 0 .455-.33L4.99 1.65Zm3.853 2.338Z" stroke="#FBC02D"></path>
</svg>