<svg xmlns="http://www.w3.org/2000/svg" viewBox="0 0 10 10" fill="none">
    <path d="M4.70929 1.08875C4.82392 0.856485 5.15512 0.856484 5.26975 1.08875L6.40414 3.38726C6.41931 3.418 6.44864 3.43931 6.48257 3.44424L9.01912 3.81283C9.27544 3.85007 9.37779 4.16506 9.19232 4.34585L7.35684 6.135C7.33229 6.15893 7.32109 6.19341 7.32689 6.2272L7.76018 8.7535C7.80397 9.00879 7.53602 9.20346 7.30676 9.08294L5.03799 7.89017C5.00765 7.87422 4.9714 7.87422 4.94105 7.89017L2.67228 9.08293C2.44303 9.20346 2.17508 9.00879 2.21886 8.75351L2.65216 6.2272C2.65795 6.19341 2.64675 6.15893 2.6222 6.135L0.78673 4.34586C0.601255 4.16506 0.703602 3.85007 0.959921 3.81283L3.49648 3.44424C3.53041 3.43931 3.55974 3.418 3.57491 3.38726L4.70929 1.08875Z" fill="#FBC02D"></path>
</svg>