<?xml version="1.0" standalone="no"?>
<!DOCTYPE svg PUBLIC "-//W3C//DTD SVG 20010904//EN"
 "http://www.w3.org/TR/2001/REC-SVG-20010904/DTD/svg10.dtd">
<svg version="1.0" xmlns="http://www.w3.org/2000/svg"
 width="920.000000pt" height="512.000000pt" viewBox="0 0 920.000000 512.000000"
 preserveAspectRatio="xMidYMid meet">

<g transform="translate(0.000000,512.000000) scale(0.100000,-0.100000)"
fill="#000000" stroke="none">
<path d="M4445 4783 c-98 -6 -272 -35 -389 -64 -318 -80 -627 -237 -876 -445
-81 -67 -250 -238 -317 -319 -132 -162 -283 -431 -358 -640 -44 -120 -89 -299
-111 -444 -23 -144 -23 -474 1 -626 112 -738 567 -1363 1228 -1685 621 -302
1332 -302 1954 0 444 216 806 579 1023 1025 347 712 292 1549 -146 2207 -404
607 -1085 982 -1804 992 -85 1 -177 0 -205 -1z m-485 -1193 c8 0 155 -140 327
-312 l313 -312 312 310 c328 326 335 332 402 313 43 -12 303 -273 315 -315 19
-67 13 -74 -312 -401 l-311 -313 310 -312 c334 -336 339 -343 310 -411 -18
-40 -272 -293 -308 -306 -65 -24 -75 -16 -405 313 l-313 310 -312 -311 c-328
-325 -335 -331 -402 -312 -42 12 -303 272 -315 315 -19 67 -13 74 312 402
l311 312 -311 313 c-229 230 -312 320 -316 341 -10 57 10 88 145 224 133 135
176 166 213 157 11 -3 27 -5 35 -5z"/>
</g>
</svg>
